<?xml version="1.0" encoding="UTF-8"?>
<!DOCTYPE svg PUBLIC "-//W3C//DTD SVG 1.1//EN" "http://www.w3.org/Graphics/SVG/1.1/DTD/svg11.dtd">
<svg xmlns="http://www.w3.org/2000/svg" version="1.1" width="378px" height="306px" style="shape-rendering:geometricPrecision; text-rendering:geometricPrecision; image-rendering:optimizeQuality; fill-rule:evenodd; clip-rule:evenodd" xmlns:xlink="http://www.w3.org/1999/xlink">
<g><path style="opacity:1" fill="#fefdfd" d="M -0.5,-0.5 C 125.5,-0.5 251.5,-0.5 377.5,-0.5C 377.5,101.5 377.5,203.5 377.5,305.5C 251.5,305.5 125.5,305.5 -0.5,305.5C -0.5,203.5 -0.5,101.5 -0.5,-0.5 Z"/></g>
<g><path style="opacity:1" fill="#e9924e" d="M 182.5,30.5 C 183.833,30.5 185.167,30.5 186.5,30.5C 186.5,44.1667 186.5,57.8333 186.5,71.5C 177.806,76.1792 169.14,80.8458 160.5,85.5C 160.719,84.325 160.386,83.325 159.5,82.5C 158.583,83.1272 157.583,83.4606 156.5,83.5C 164.637,78.5955 172.97,73.9288 181.5,69.5C 182.824,58.6596 182.824,47.6596 181.5,36.5C 180.893,36.6236 180.56,36.9569 180.5,37.5C 173.833,40.8333 167.167,44.1667 160.5,47.5C 160.715,45.8212 160.048,44.8212 158.5,44.5C 166.236,39.4423 174.236,34.7756 182.5,30.5 Z"/></g>
<g><path style="opacity:1" fill="#e2714b" d="M 200.5,31.5 C 201.167,31.5 201.5,31.8333 201.5,32.5C 201.267,34.0618 200.6,35.3951 199.5,36.5C 198.856,47.8842 199.523,58.8842 201.5,69.5C 205.336,71.5836 209.003,73.917 212.5,76.5C 212.719,77.675 212.386,78.675 211.5,79.5C 210.583,78.8728 209.583,78.5394 208.5,78.5C 204.164,76.668 200.164,74.3346 196.5,71.5C 196.5,58.1667 196.5,44.8333 196.5,31.5C 197.833,31.5 199.167,31.5 200.5,31.5 Z"/></g>
<g><path style="opacity:1" fill="#f7dbc1" d="M 182.5,30.5 C 183.919,29.5489 185.585,29.2155 187.5,29.5C 187.829,43.6766 187.496,57.6766 186.5,71.5C 186.5,57.8333 186.5,44.1667 186.5,30.5C 185.167,30.5 183.833,30.5 182.5,30.5 Z"/></g>
<g><path style="opacity:1" fill="#e78e74" d="M 200.5,31.5 C 199.167,31.5 197.833,31.5 196.5,31.5C 196.5,44.8333 196.5,58.1667 196.5,71.5C 195.504,58.0102 195.171,44.3435 195.5,30.5C 197.415,30.2155 199.081,30.5489 200.5,31.5 Z"/></g>
<g><path style="opacity:1" fill="#f2c2b3" d="M 199.5,36.5 C 200.791,36.2627 201.791,36.596 202.5,37.5C 201.172,42.2876 200.505,47.4543 200.5,53C 200.522,58.5784 200.856,64.0784 201.5,69.5C 199.523,58.8842 198.856,47.8842 199.5,36.5 Z"/></g>
<g><path style="opacity:1" fill="#fefcfb" d="M 180.5,37.5 C 181.494,47.9869 181.828,58.6536 181.5,69.5C 172.97,73.9288 164.637,78.5955 156.5,83.5C 152.968,84.8533 149.801,86.8533 147,89.5C 146.333,106.5 146.333,123.5 147,140.5C 150.719,143.059 154.552,145.392 158.5,147.5C 168.492,153.497 178.492,159.497 188.5,165.5C 190.035,166.788 191.701,166.788 193.5,165.5C 204.097,159.62 214.597,153.62 225,147.5C 234.432,152.463 243.599,157.796 252.5,163.5C 232.011,175.244 211.678,187.244 191.5,199.5C 186.177,196.504 180.843,193.504 175.5,190.5C 165.841,185.672 156.508,180.339 147.5,174.5C 139.706,170.435 132.04,166.102 124.5,161.5C 122.813,159.834 120.813,158.5 118.5,157.5C 117.333,129.173 117.167,100.839 118,72.5C 120.278,71.281 122.445,69.9477 124.5,68.5C 136.864,61.9897 148.864,54.9897 160.5,47.5C 167.167,44.1667 173.833,40.8333 180.5,37.5 Z"/></g>
<g><path style="opacity:1" fill="#f8e4cf" d="M 180.5,37.5 C 180.56,36.9569 180.893,36.6236 181.5,36.5C 182.824,47.6596 182.824,58.6596 181.5,69.5C 181.828,58.6536 181.494,47.9869 180.5,37.5 Z"/></g>
<g><path style="opacity:1" fill="#fefdfc" d="M 202.5,37.5 C 207.183,39.8627 211.85,42.1961 216.5,44.5C 222.052,49.3564 228.385,53.023 235.5,55.5C 244.57,61.5639 253.903,67.2305 263.5,72.5C 263.831,96.3392 263.498,120.006 262.5,143.5C 257.14,140.82 251.807,138.153 246.5,135.5C 242.817,133.659 239.484,131.326 236.5,128.5C 237.148,114.791 236.481,101.458 234.5,88.5C 229.853,86.1747 225.52,83.3413 221.5,80C 218.4,79.0614 215.4,77.8948 212.5,76.5C 209.003,73.917 205.336,71.5836 201.5,69.5C 200.856,64.0784 200.522,58.5784 200.5,53C 200.505,47.4543 201.172,42.2876 202.5,37.5 Z"/></g>
<g><path style="opacity:1" fill="#e5804b" d="M 201.5,32.5 C 207.333,35.2489 212.999,38.2489 218.5,41.5C 218.715,43.1788 218.048,44.1788 216.5,44.5C 211.85,42.1961 207.183,39.8627 202.5,37.5C 201.791,36.596 200.791,36.2627 199.5,36.5C 200.6,35.3951 201.267,34.0618 201.5,32.5 Z"/></g>
<g><path style="opacity:1" fill="#ea9451" d="M 218.5,41.5 C 224.367,44.5961 230.033,47.9294 235.5,51.5C 234.314,52.7054 234.314,54.0387 235.5,55.5C 228.385,53.023 222.052,49.3564 216.5,44.5C 218.048,44.1788 218.715,43.1788 218.5,41.5 Z"/></g>
<g><path style="opacity:1" fill="#eb9e47" d="M 235.5,51.5 C 246.52,57.0951 257.354,63.0951 268,69.5C 268.667,96.5 268.667,123.5 268,150.5C 266.132,151.672 264.298,151.505 262.5,150C 256.605,145.893 250.605,142.059 244.5,138.5C 244.932,137.29 245.599,136.29 246.5,135.5C 251.807,138.153 257.14,140.82 262.5,143.5C 262.56,144.043 262.893,144.376 263.5,144.5C 264.829,120.337 264.829,96.3367 263.5,72.5C 253.903,67.2305 244.57,61.5639 235.5,55.5C 234.314,54.0387 234.314,52.7054 235.5,51.5 Z"/></g>
<g><path style="opacity:1" fill="#e68354" d="M 158.5,44.5 C 160.048,44.8212 160.715,45.8212 160.5,47.5C 148.864,54.9897 136.864,61.9897 124.5,68.5C 124.5,67.5 124.5,66.5 124.5,65.5C 123.5,65.5 122.5,65.5 121.5,65.5C 133.663,58.2504 145.996,51.2504 158.5,44.5 Z"/></g>
<g><path style="opacity:1" fill="#e16f4c" d="M 121.5,65.5 C 122.5,65.5 123.5,65.5 124.5,65.5C 124.5,66.5 124.5,67.5 124.5,68.5C 122.445,69.9477 120.278,71.281 118,72.5C 117.167,100.839 117.333,129.173 118.5,157.5C 120.813,158.5 122.813,159.834 124.5,161.5C 124.5,162.5 124.5,163.5 124.5,164.5C 123.5,164.5 122.5,164.5 121.5,164.5C 118.883,163.214 116.55,161.547 114.5,159.5C 114.333,130.165 114.5,100.831 115,71.5C 115.513,70.4734 116.013,69.4734 116.5,68.5C 117.659,66.7497 119.326,65.7497 121.5,65.5 Z"/></g>
<g><path style="opacity:1" fill="#e57f62" d="M 116.5,68.5 C 116.013,69.4734 115.513,70.4734 115,71.5C 114.5,100.831 114.333,130.165 114.5,159.5C 113.336,130.003 113.169,100.336 114,70.5C 114.417,69.244 115.25,68.5774 116.5,68.5 Z"/></g>
<g><path style="opacity:1" fill="#f9e3c5" d="M 263.5,72.5 C 264.829,96.3367 264.829,120.337 263.5,144.5C 262.893,144.376 262.56,144.043 262.5,143.5C 263.498,120.006 263.831,96.3392 263.5,72.5 Z"/></g>
<g><path style="opacity:1" fill="#e88b56" d="M 160.5,85.5 C 158.235,87.642 155.568,89.3087 152.5,90.5C 151.334,106.49 151.167,122.49 152,138.5C 154.824,139.818 157.324,141.485 159.5,143.5C 159.539,144.583 159.873,145.583 160.5,146.5C 160.043,147.298 159.376,147.631 158.5,147.5C 154.552,145.392 150.719,143.059 147,140.5C 146.333,123.5 146.333,106.5 147,89.5C 149.801,86.8533 152.968,84.8533 156.5,83.5C 157.583,83.4606 158.583,83.1272 159.5,82.5C 160.386,83.325 160.719,84.325 160.5,85.5 Z"/></g>
<g><path style="opacity:1" fill="#eb9954" d="M 212.5,76.5 C 215.4,77.8948 218.4,79.0614 221.5,80C 225.52,83.3413 229.853,86.1747 234.5,88.5C 235.15,101.932 235.816,115.265 236.5,128.5C 239.484,131.326 242.817,133.659 246.5,135.5C 245.599,136.29 244.932,137.29 244.5,138.5C 239.277,136.975 234.777,134.308 231,130.5C 230.833,117.154 230.333,103.821 229.5,90.5C 221.949,87.2315 214.949,83.2315 208.5,78.5C 209.583,78.5394 210.583,78.8728 211.5,79.5C 212.386,78.675 212.719,77.675 212.5,76.5 Z"/></g>
<g><path style="opacity:1" fill="#fae4cf" d="M 234.5,88.5 C 236.481,101.458 237.148,114.791 236.5,128.5C 235.816,115.265 235.15,101.932 234.5,88.5 Z"/></g>
<g><path style="opacity:1" fill="#eca050" d="M 174.5,194.5 C 175.434,193.432 175.768,192.099 175.5,190.5C 180.843,193.504 186.177,196.504 191.5,199.5C 211.678,187.244 232.011,175.244 252.5,163.5C 243.599,157.796 234.432,152.463 225,147.5C 214.597,153.62 204.097,159.62 193.5,165.5C 191.701,166.788 190.035,166.788 188.5,165.5C 189.5,165.5 190.5,165.5 191.5,165.5C 191.608,163.486 190.942,161.82 189.5,160.5C 192.425,160.54 195.091,159.707 197.5,158C 206.323,152.173 215.489,147.007 225,142.5C 236.112,148.479 247.279,154.646 258.5,161C 259.357,161.689 260.023,162.522 260.5,163.5C 258.206,165.322 255.872,167.156 253.5,169C 233.241,180.268 213.241,191.934 193.5,204C 186.163,202.998 179.83,199.832 174.5,194.5 Z"/></g>
<g><path style="opacity:1" fill="#ea9450" d="M 159.5,143.5 C 169.473,149.155 179.473,154.821 189.5,160.5C 190.942,161.82 191.608,163.486 191.5,165.5C 190.5,165.5 189.5,165.5 188.5,165.5C 178.492,159.497 168.492,153.497 158.5,147.5C 159.376,147.631 160.043,147.298 160.5,146.5C 159.873,145.583 159.539,144.583 159.5,143.5 Z"/></g>
<g><path style="opacity:1" fill="#e58051" d="M 124.5,161.5 C 132.04,166.102 139.706,170.435 147.5,174.5C 147.768,176.099 147.434,177.432 146.5,178.5C 137.997,174.083 129.664,169.417 121.5,164.5C 122.5,164.5 123.5,164.5 124.5,164.5C 124.5,163.5 124.5,162.5 124.5,161.5 Z"/></g>
<g><path style="opacity:1" fill="#e88c4e" d="M 147.5,174.5 C 156.508,180.339 165.841,185.672 175.5,190.5C 175.768,192.099 175.434,193.432 174.5,194.5C 164.507,190.175 155.174,184.841 146.5,178.5C 147.434,177.432 147.768,176.099 147.5,174.5 Z"/></g>
<g><path style="opacity:1" fill="#696e78" d="M 225.5,253.5 C 224.508,245.684 224.174,237.684 224.5,229.5C 226.167,229.5 227.833,229.5 229.5,229.5C 229.1,237.964 229.767,246.298 231.5,254.5C 229.265,254.795 227.265,254.461 225.5,253.5 Z"/></g>
<g><path style="opacity:1" fill="#29313f" d="M 225.5,253.5 C 225.5,245.833 225.5,238.167 225.5,230.5C 226.5,230.5 227.5,230.5 228.5,230.5C 227.917,238.043 228.584,245.376 230.5,252.5C 228.955,253.452 227.288,253.785 225.5,253.5 Z"/></g>
<g><path style="opacity:1" fill="#474e5a" d="M 273.5,229.5 C 277.676,228.831 279.009,230.331 277.5,234C 276.207,234.49 274.873,234.657 273.5,234.5C 273.5,232.833 273.5,231.167 273.5,229.5 Z"/></g>
<g><path style="opacity:1" fill="#373e4b" d="M 103.5,232.5 C 103.763,237.124 104.763,241.458 106.5,245.5C 107.735,248.33 108.735,251.33 109.5,254.5C 107.833,254.5 106.167,254.5 104.5,254.5C 104.472,248.96 101.972,247.293 97,249.5C 96.5065,251.134 96.3398,252.801 96.5,254.5C 94.712,254.785 93.0453,254.452 91.5,253.5C 93.9533,247.022 95.7867,240.355 97,233.5C 98.8245,231.176 100.991,230.843 103.5,232.5 Z"/></g>
<g><path style="opacity:1" fill="#2d3543" d="M 220.5,231.5 C 220.5,232.5 220.5,233.5 220.5,234.5C 217.941,234.198 215.607,234.532 213.5,235.5C 212.539,237.265 212.205,239.265 212.5,241.5C 220.5,242.167 220.5,242.833 212.5,243.5C 212.5,246.167 212.5,248.833 212.5,251.5C 215.167,251.5 217.833,251.5 220.5,251.5C 220.5,252.5 220.5,253.5 220.5,254.5C 216.5,254.5 212.5,254.5 208.5,254.5C 208.5,246.833 208.5,239.167 208.5,231.5C 212.5,231.5 216.5,231.5 220.5,231.5 Z"/></g>
<g><path style="opacity:1" fill="#2d3543" d="M 263.5,233.5 C 264.5,233.5 265.5,233.5 266.5,233.5C 266.232,235.099 266.566,236.432 267.5,237.5C 268.5,237.5 269.5,237.5 270.5,237.5C 270.5,238.5 270.5,239.5 270.5,240.5C 269.167,240.5 267.833,240.5 266.5,240.5C 266.335,243.85 266.502,247.183 267,250.5C 268.011,251.337 269.178,251.67 270.5,251.5C 270.5,252.5 270.5,253.5 270.5,254.5C 268.473,254.662 266.473,254.495 264.5,254C 263.874,253.25 263.374,252.416 263,251.5C 262.95,247.141 262.117,242.974 260.5,239C 262.576,237.756 263.576,235.923 263.5,233.5 Z"/></g>
<g><path style="opacity:1" fill="#a4a7ad" d="M 263.5,233.5 C 264.568,232.566 265.901,232.232 267.5,232.5C 267.5,234.167 267.5,235.833 267.5,237.5C 266.566,236.432 266.232,235.099 266.5,233.5C 265.5,233.5 264.5,233.5 263.5,233.5 Z"/></g>
<g><path style="opacity:1" fill="#979aa1" d="M 220.5,231.5 C 221.434,232.568 221.768,233.901 221.5,235.5C 218.833,235.5 216.167,235.5 213.5,235.5C 215.607,234.532 217.941,234.198 220.5,234.5C 220.5,233.5 220.5,232.5 220.5,231.5 Z"/></g>
<g><path style="opacity:1" fill="#323947" d="M 112.5,237.5 C 118.82,237.663 125.154,237.829 131.5,238C 132,238.5 132.5,239 133,239.5C 133.499,244.489 133.666,249.489 133.5,254.5C 131.833,254.5 130.167,254.5 128.5,254.5C 128.5,249.833 128.5,245.167 128.5,240.5C 127.167,240.5 125.833,240.5 124.5,240.5C 124.5,245.167 124.5,249.833 124.5,254.5C 123.167,254.5 121.833,254.5 120.5,254.5C 120.5,249.833 120.5,245.167 120.5,240.5C 119.167,240.5 117.833,240.5 116.5,240.5C 115.515,244.634 115.182,248.968 115.5,253.5C 114.5,253.5 113.5,253.5 112.5,253.5C 112.5,248.167 112.5,242.833 112.5,237.5 Z"/></g>
<g><path style="opacity:1" fill="#353c4a" d="M 137.5,252.5 C 137.448,250.097 137.781,247.764 138.5,245.5C 140.265,244.539 142.265,244.205 144.5,244.5C 144.5,243.167 144.5,241.833 144.5,240.5C 142.5,240.5 140.5,240.5 138.5,240.5C 138.5,239.5 138.5,238.5 138.5,237.5C 141.579,237.26 144.579,237.593 147.5,238.5C 148.495,243.792 148.828,249.125 148.5,254.5C 145.991,253.325 143.491,253.325 141,254.5C 139.301,254.613 138.134,253.947 137.5,252.5 Z"/></g>
<g><path style="opacity:1" fill="#333a47" d="M 158.5,248.5 C 157.596,249.209 157.263,250.209 157.5,251.5C 159.5,251.5 161.5,251.5 163.5,251.5C 163.5,252.5 163.5,253.5 163.5,254.5C 159.833,254.5 156.167,254.5 152.5,254.5C 152.654,249.337 154.654,245.003 158.5,241.5C 156.604,240.534 154.604,240.201 152.5,240.5C 152.5,239.5 152.5,238.5 152.5,237.5C 156.167,237.5 159.833,237.5 163.5,237.5C 162.668,241.501 161.001,245.168 158.5,248.5 Z"/></g>
<g><path style="opacity:1" fill="#343b49" d="M 169.5,237.5 C 171.857,237.337 174.19,237.503 176.5,238C 177.667,238.5 178.5,239.333 179,240.5C 179.667,244.167 179.667,247.833 179,251.5C 176.441,254.349 173.274,255.183 169.5,254C 165.521,248.433 165.521,242.933 169.5,237.5 Z"/></g>
<g><path style="opacity:1" fill="#5b616c" d="M 184.5,237.5 C 184.5,242.833 184.5,248.167 184.5,253.5C 185.5,253.5 186.5,253.5 187.5,253.5C 187.182,248.968 187.515,244.634 188.5,240.5C 188.5,245.167 188.5,249.833 188.5,254.5C 186.833,254.5 185.167,254.5 183.5,254.5C 183.178,248.642 183.511,242.975 184.5,237.5 Z"/></g>
<g><path style="opacity:1" fill="#2a323f" d="M 184.5,237.5 C 188.324,237.674 192.158,238.007 196,238.5C 196.499,243.823 196.666,249.156 196.5,254.5C 195.167,254.5 193.833,254.5 192.5,254.5C 192.5,249.833 192.5,245.167 192.5,240.5C 191.167,240.5 189.833,240.5 188.5,240.5C 187.515,244.634 187.182,248.968 187.5,253.5C 186.5,253.5 185.5,253.5 184.5,253.5C 184.5,248.167 184.5,242.833 184.5,237.5 Z"/></g>
<g><path style="opacity:1" fill="#363d4a" d="M 234.5,237.5 C 237.909,237.249 241.242,237.583 244.5,238.5C 245.495,243.792 245.828,249.125 245.5,254.5C 242.991,253.325 240.491,253.325 238,254.5C 233.794,253.472 232.461,250.805 234,246.5C 236.135,244.722 238.635,244.055 241.5,244.5C 241.5,243.167 241.5,241.833 241.5,240.5C 239.167,240.5 236.833,240.5 234.5,240.5C 234.5,239.5 234.5,238.5 234.5,237.5 Z"/></g>
<g><path style="opacity:1" fill="#38404d" d="M 250.5,237.5 C 252.833,237.5 255.167,237.5 257.5,237.5C 257.5,238.5 257.5,239.5 257.5,240.5C 255.833,240.5 254.167,240.5 252.5,240.5C 252.281,241.675 252.614,242.675 253.5,243.5C 258.797,245.787 259.797,249.287 256.5,254C 253.854,254.497 251.187,254.664 248.5,254.5C 248.5,253.5 248.5,252.5 248.5,251.5C 250.5,251.5 252.5,251.5 254.5,251.5C 254.649,250.448 254.483,249.448 254,248.5C 248.363,246.102 247.196,242.436 250.5,237.5 Z"/></g>
<g><path style="opacity:1" fill="#434a56" d="M 273.5,237.5 C 275.167,237.5 276.833,237.5 278.5,237.5C 278.5,243.167 278.5,248.833 278.5,254.5C 276.833,254.5 275.167,254.5 273.5,254.5C 273.5,248.833 273.5,243.167 273.5,237.5 Z"/></g>
<g><path style="opacity:1" fill="#3a414e" d="M 287.5,241.5 C 286.362,244.304 286.195,247.304 287,250.5C 288.356,251.38 289.856,251.714 291.5,251.5C 291.5,252.5 291.5,253.5 291.5,254.5C 284.407,255.743 281.074,252.743 281.5,245.5C 281.719,238.296 285.385,235.629 292.5,237.5C 292.5,238.5 292.5,239.5 292.5,240.5C 290.585,240.216 288.919,240.549 287.5,241.5 Z"/></g>
<g><path style="opacity:1" fill="#6c717b" d="M 103.5,232.5 C 105.237,236.542 106.237,240.876 106.5,245.5C 104.763,241.458 103.763,237.124 103.5,232.5 Z"/></g>
<g><path style="opacity:1" fill="#dbdcde" d="M 171.5,240.5 C 172.822,240.33 173.989,240.663 175,241.5C 175.667,244.5 175.667,247.5 175,250.5C 173.413,251.727 172.079,251.394 171,249.5C 170.264,246.408 170.431,243.408 171.5,240.5 Z"/></g>
<g><path style="opacity:1" fill="#575d68" d="M 112.5,237.5 C 112.5,242.833 112.5,248.167 112.5,253.5C 113.5,253.5 114.5,253.5 115.5,253.5C 115.182,248.968 115.515,244.634 116.5,240.5C 116.5,245.167 116.5,249.833 116.5,254.5C 114.833,254.5 113.167,254.5 111.5,254.5C 111.178,248.642 111.511,242.975 112.5,237.5 Z"/></g>
<g><path style="opacity:1" fill="#c2c4c8" d="M 116.5,240.5 C 117.833,240.5 119.167,240.5 120.5,240.5C 120.5,245.167 120.5,249.833 120.5,254.5C 119.834,250.316 119.167,245.982 118.5,241.5C 117.833,245.982 117.166,250.316 116.5,254.5C 116.5,249.833 116.5,245.167 116.5,240.5 Z"/></g>
<g><path style="opacity:1" fill="#d3d4d7" d="M 99.5,237.5 C 101.223,239.78 101.889,242.447 101.5,245.5C 100.5,245.5 99.5,245.5 98.5,245.5C 98.4013,242.763 98.7347,240.096 99.5,237.5 Z"/></g>
<g><path style="opacity:1" fill="#c4c7ca" d="M 287.5,241.5 C 287.336,244.187 287.503,246.854 288,249.5C 289.699,250.406 291.533,250.739 293.5,250.5C 293.843,252.483 293.176,253.817 291.5,254.5C 291.5,253.5 291.5,252.5 291.5,251.5C 289.856,251.714 288.356,251.38 287,250.5C 286.195,247.304 286.362,244.304 287.5,241.5 Z"/></g>
<g><path style="opacity:1" fill="#b5b8bc" d="M 238.5,246.5 C 239.5,246.5 240.5,246.5 241.5,246.5C 241.5,248.167 241.5,249.833 241.5,251.5C 240.167,251.5 238.833,251.5 237.5,251.5C 237.366,249.708 237.699,248.042 238.5,246.5 Z"/></g>
<g><path style="opacity:1" fill="#83878f" d="M 138.5,245.5 C 137.781,247.764 137.448,250.097 137.5,252.5C 136.853,251.726 136.52,250.726 136.5,249.5C 136.34,247.645 137.007,246.312 138.5,245.5 Z"/></g>
<g><path style="opacity:1" fill="#e3e4e6" d="M 141.5,247.5 C 142.5,247.5 143.5,247.5 144.5,247.5C 144.5,248.833 144.5,250.167 144.5,251.5C 143.5,251.5 142.5,251.5 141.5,251.5C 141.5,250.167 141.5,248.833 141.5,247.5 Z"/></g>
<g><path style="opacity:1" fill="#92969d" d="M 158.5,248.5 C 159.802,250.028 161.469,251.028 163.5,251.5C 161.5,251.5 159.5,251.5 157.5,251.5C 157.263,250.209 157.596,249.209 158.5,248.5 Z"/></g>
<g><path style="opacity:1" fill="#8c9098" d="M 213.5,235.5 C 213.5,237.167 213.5,238.833 213.5,240.5C 215.5,240.5 217.5,240.5 219.5,240.5C 219.5,241.833 219.5,243.167 219.5,244.5C 217.5,244.5 215.5,244.5 213.5,244.5C 213.5,246.5 213.5,248.5 213.5,250.5C 216.167,250.5 218.833,250.5 221.5,250.5C 221.768,252.099 221.434,253.432 220.5,254.5C 220.5,253.5 220.5,252.5 220.5,251.5C 217.833,251.5 215.167,251.5 212.5,251.5C 212.5,248.833 212.5,246.167 212.5,243.5C 220.5,242.833 220.5,242.167 212.5,241.5C 212.205,239.265 212.539,237.265 213.5,235.5 Z"/></g>
<g><path style="opacity:1" fill="#95999f" d="M 88.5,264.5 C 85.7628,264.401 83.0961,264.735 80.5,265.5C 81.4919,263.974 82.9919,263.307 85,263.5C 86.3847,263.514 87.5514,263.848 88.5,264.5 Z"/></g>
<g><path style="opacity:1" fill="#474e5a" d="M 154.5,262.5 C 158.676,261.831 160.009,263.331 158.5,267C 157.207,267.49 155.873,267.657 154.5,267.5C 154.5,265.833 154.5,264.167 154.5,262.5 Z"/></g>
<g><path style="opacity:1" fill="#8d9199" d="M 224.5,264.5 C 221.763,264.401 219.096,264.735 216.5,265.5C 217.492,263.974 218.992,263.307 221,263.5C 222.385,263.514 223.551,263.848 224.5,264.5 Z"/></g>
<g><path style="opacity:1" fill="#454c58" d="M 274.5,262.5 C 278.676,261.831 280.009,263.331 278.5,267C 277.207,267.49 275.873,267.657 274.5,267.5C 274.5,265.833 274.5,264.167 274.5,262.5 Z"/></g>
<g><path style="opacity:1" fill="#363d4a" d="M 88.5,264.5 C 90.0481,264.821 90.7148,265.821 90.5,267.5C 87.3148,267.02 84.4815,267.686 82,269.5C 81.1881,273.689 81.3547,277.689 82.5,281.5C 84.6353,283.369 87.3019,284.036 90.5,283.5C 90.67,284.822 90.3366,285.989 89.5,287C 79.8313,289.003 75.498,285.003 76.5,275C 76.3592,271.125 77.6925,267.958 80.5,265.5C 83.0961,264.735 85.7628,264.401 88.5,264.5 Z"/></g>
<g><path style="opacity:1" fill="#373f4c" d="M 224.5,264.5 C 225.586,264.62 226.253,265.287 226.5,266.5C 226.167,267.167 225.833,267.833 225.5,268.5C 222.517,266.794 220.184,267.294 218.5,270C 218.759,271.261 219.426,272.261 220.5,273C 228.06,275.945 229.393,280.611 224.5,287C 221.183,287.498 217.85,287.665 214.5,287.5C 214.343,286.127 214.51,284.793 215,283.5C 217.064,284.591 219.231,284.758 221.5,284C 222.554,282.612 222.72,281.112 222,279.5C 219.626,277.49 217.293,275.49 215,273.5C 214.115,270.462 214.615,267.795 216.5,265.5C 219.096,264.735 221.763,264.401 224.5,264.5 Z"/></g>
<g><path style="opacity:1" fill="#343b48" d="M 128.5,265.5 C 129.833,265.5 131.167,265.5 132.5,265.5C 132.5,267.167 132.5,268.833 132.5,270.5C 133.5,270.5 134.5,270.5 135.5,270.5C 135.5,271.5 135.5,272.5 135.5,273.5C 134.5,273.5 133.5,273.5 132.5,273.5C 132.5,277.167 132.5,280.833 132.5,284.5C 133.833,284.5 135.167,284.5 136.5,284.5C 136.5,285.5 136.5,286.5 136.5,287.5C 133.881,287.768 131.381,287.435 129,286.5C 128.985,281.482 128.152,276.649 126.5,272C 128.003,270.079 128.669,267.912 128.5,265.5 Z"/></g>
<g><path style="opacity:1" fill="#323947" d="M 96.5,270.5 C 105.827,270.019 108.994,274.352 106,283.5C 103.947,287.292 100.781,288.458 96.5,287C 92.5213,281.433 92.5213,275.933 96.5,270.5 Z"/></g>
<g><path style="opacity:1" fill="#28303e" d="M 121.5,270.5 C 122.4,275.772 122.733,281.105 122.5,286.5C 121.5,286.5 120.5,286.5 119.5,286.5C 119.818,281.968 119.485,277.634 118.5,273.5C 117.167,273.5 115.833,273.5 114.5,273.5C 114.5,278.167 114.5,282.833 114.5,287.5C 113.167,287.5 111.833,287.5 110.5,287.5C 110.5,281.833 110.5,276.167 110.5,270.5C 114.122,271.418 117.788,271.418 121.5,270.5 Z"/></g>
<g><path style="opacity:1" fill="#363e4b" d="M 140.5,270.5 C 143.579,270.26 146.579,270.593 149.5,271.5C 150.495,276.792 150.828,282.125 150.5,287.5C 147.863,286.849 145.363,286.849 143,287.5C 138.794,286.472 137.461,283.805 139,279.5C 141.135,277.722 143.635,277.055 146.5,277.5C 146.5,276.167 146.5,274.833 146.5,273.5C 144.076,273.808 141.743,273.474 139.5,272.5C 139.863,271.817 140.196,271.15 140.5,270.5 Z"/></g>
<g><path style="opacity:1" fill="#787d86" d="M 155.5,270.5 C 155.5,275.833 155.5,281.167 155.5,286.5C 156.5,286.5 157.5,286.5 158.5,286.5C 158.5,281.167 158.5,275.833 158.5,270.5C 159.489,275.975 159.822,281.642 159.5,287.5C 157.833,287.5 156.167,287.5 154.5,287.5C 154.178,281.642 154.511,275.975 155.5,270.5 Z"/></g>
<g><path style="opacity:1" fill="#2a3240" d="M 155.5,270.5 C 156.5,270.5 157.5,270.5 158.5,270.5C 158.5,275.833 158.5,281.167 158.5,286.5C 157.5,286.5 156.5,286.5 155.5,286.5C 155.5,281.167 155.5,275.833 155.5,270.5 Z"/></g>
<g><path style="opacity:1" fill="#2e3643" d="M 163.5,270.5 C 167.664,270.78 171.831,271.113 176,271.5C 176.499,276.823 176.666,282.156 176.5,287.5C 175.167,287.5 173.833,287.5 172.5,287.5C 172.5,282.833 172.5,278.167 172.5,273.5C 170.833,273.5 169.167,273.5 167.5,273.5C 167.5,278.167 167.5,282.833 167.5,287.5C 166.167,287.5 164.833,287.5 163.5,287.5C 163.5,281.833 163.5,276.167 163.5,270.5 Z"/></g>
<g><path style="opacity:1" fill="#313946" d="M 196.5,270.5 C 199.458,271.541 202.458,271.541 205.5,270.5C 205.5,271.833 205.5,273.167 205.5,274.5C 203.833,274.5 202.167,274.5 200.5,274.5C 199.517,278.298 199.183,282.298 199.5,286.5C 198.5,286.5 197.5,286.5 196.5,286.5C 196.5,281.167 196.5,275.833 196.5,270.5 Z"/></g>
<g><path style="opacity:1" fill="#3a414e" d="M 242.5,279.5 C 239.833,279.5 237.167,279.5 234.5,279.5C 234.263,280.791 234.596,281.791 235.5,282.5C 237.45,284.026 239.783,285.026 242.5,285.5C 234.865,289.842 230.865,287.509 230.5,278.5C 230.761,270.913 234.428,268.58 241.5,271.5C 243.599,274.066 243.932,276.733 242.5,279.5 Z"/></g>
<g><path style="opacity:1" fill="#2a3240" d="M 247.5,270.5 C 250.167,271.833 252.833,271.833 255.5,270.5C 255.5,271.5 255.5,272.5 255.5,273.5C 254.209,273.263 253.209,273.596 252.5,274.5C 252.167,274.5 251.833,274.5 251.5,274.5C 250.517,278.298 250.183,282.298 250.5,286.5C 249.5,286.5 248.5,286.5 247.5,286.5C 247.5,281.167 247.5,275.833 247.5,270.5 Z"/></g>
<g><path style="opacity:1" fill="#333a47" d="M 262.5,270.5 C 263.371,274.021 264.205,277.688 265,281.5C 266.108,277.914 266.608,274.247 266.5,270.5C 268.781,270.077 270.448,270.744 271.5,272.5C 270.076,274.515 269.41,276.848 269.5,279.5C 268.076,281.515 267.41,283.848 267.5,286.5C 266.081,287.451 264.415,287.784 262.5,287.5C 262.435,284.572 261.768,281.905 260.5,279.5C 260.452,276.687 259.785,274.021 258.5,271.5C 259.689,270.571 261.022,270.238 262.5,270.5 Z"/></g>
<g><path style="opacity:1" fill="#424955" d="M 274.5,270.5 C 276.167,270.5 277.833,270.5 279.5,270.5C 279.5,276.167 279.5,281.833 279.5,287.5C 277.833,287.5 276.167,287.5 274.5,287.5C 274.5,281.833 274.5,276.167 274.5,270.5 Z"/></g>
<g><path style="opacity:1" fill="#3a414e" d="M 288.5,274.5 C 287.362,277.304 287.195,280.304 288,283.5C 289.356,284.38 290.856,284.714 292.5,284.5C 292.5,285.5 292.5,286.5 292.5,287.5C 285.974,288.149 282.64,285.149 282.5,278.5C 282.962,271.747 286.628,269.081 293.5,270.5C 293.5,271.5 293.5,272.5 293.5,273.5C 291.585,273.216 289.919,273.549 288.5,274.5 Z"/></g>
<g><path style="opacity:1" fill="#373f4c" d="M 192.5,279.5 C 189.833,279.5 187.167,279.5 184.5,279.5C 184.232,281.099 184.566,282.432 185.5,283.5C 187.844,283.94 189.844,284.94 191.5,286.5C 188.204,288.027 185.038,287.693 182,285.5C 179.575,280.241 180.075,275.408 183.5,271C 190.834,269.167 193.834,272 192.5,279.5 Z"/></g>
<g><path style="opacity:1" fill="#b5b8bd" d="M 262.5,270.5 C 261.022,270.238 259.689,270.571 258.5,271.5C 259.785,274.021 260.452,276.687 260.5,279.5C 259.52,275.474 256.853,273.807 252.5,274.5C 253.209,273.596 254.209,273.263 255.5,273.5C 255.5,272.5 255.5,271.5 255.5,270.5C 257.979,269.377 260.312,269.377 262.5,270.5 Z"/></g>
<g><path style="opacity:1" fill="#313946" d="M 307.5,272.5 C 307.5,274.833 307.5,277.167 307.5,279.5C 304.753,279.187 302.086,279.52 299.5,280.5C 299.624,281.107 299.957,281.44 300.5,281.5C 300.328,282.492 300.662,283.158 301.5,283.5C 303.844,283.94 305.844,284.94 307.5,286.5C 300.287,289.473 296.62,286.973 296.5,279C 296.723,270.577 300.39,268.41 307.5,272.5 Z"/></g>
<g><path style="opacity:1" fill="#b7babe" d="M 90.5,267.5 C 87.8785,268.033 85.3785,269.033 83,270.5C 82.5014,274.152 82.3347,277.818 82.5,281.5C 81.3547,277.689 81.1881,273.689 82,269.5C 84.4815,267.686 87.3148,267.02 90.5,267.5 Z"/></g>
<g><path style="opacity:1" fill="#d8dadc" d="M 184.5,273.5 C 185.833,273.5 187.167,273.5 188.5,273.5C 188.5,274.833 188.5,276.167 188.5,277.5C 187.167,277.5 185.833,277.5 184.5,277.5C 184.5,276.167 184.5,274.833 184.5,273.5 Z"/></g>
<g><path style="opacity:1" fill="#f5f6f6" d="M 238.5,273.5 C 238.5,274.5 238.5,275.5 238.5,276.5C 236.821,276.715 235.821,276.048 235.5,274.5C 236.209,273.596 237.209,273.263 238.5,273.5 Z"/></g>
<g><path style="opacity:1" fill="#f3f3f4" d="M 303.5,273.5 C 303.5,274.5 303.5,275.5 303.5,276.5C 302.209,276.737 301.209,276.404 300.5,275.5C 300.821,273.952 301.821,273.285 303.5,273.5 Z"/></g>
<g><path style="opacity:1" fill="#dddee1" d="M 98.5,273.5 C 99.8221,273.33 100.989,273.663 102,274.5C 102.667,277.167 102.667,279.833 102,282.5C 100.667,285.167 99.3333,285.167 98,282.5C 97.2642,279.408 97.4309,276.408 98.5,273.5 Z"/></g>
<g><path style="opacity:1" fill="#d6d7da" d="M 118.5,273.5 C 118.5,274.167 118.5,274.833 118.5,275.5C 117.883,275.389 117.383,275.056 117,274.5C 117.108,279.28 116.275,283.614 114.5,287.5C 114.5,282.833 114.5,278.167 114.5,273.5C 115.833,273.5 117.167,273.5 118.5,273.5 Z"/></g>
<g><path style="opacity:1" fill="#686e78" d="M 121.5,270.5 C 122.117,270.611 122.617,270.944 123,271.5C 123.499,276.823 123.666,282.156 123.5,287.5C 121.833,287.5 120.167,287.5 118.5,287.5C 118.5,283.5 118.5,279.5 118.5,275.5C 118.5,274.833 118.5,274.167 118.5,273.5C 119.485,277.634 119.818,281.968 119.5,286.5C 120.5,286.5 121.5,286.5 122.5,286.5C 122.733,281.105 122.4,275.772 121.5,270.5 Z"/></g>
<g><path style="opacity:1" fill="#585e68" d="M 196.5,270.5 C 196.5,275.833 196.5,281.167 196.5,286.5C 197.5,286.5 198.5,286.5 199.5,286.5C 199.183,282.298 199.517,278.298 200.5,274.5C 200.5,278.833 200.5,283.167 200.5,287.5C 198.833,287.5 197.167,287.5 195.5,287.5C 195.178,281.642 195.511,275.975 196.5,270.5 Z"/></g>
<g><path style="opacity:1" fill="#575e68" d="M 247.5,270.5 C 247.5,275.833 247.5,281.167 247.5,286.5C 248.5,286.5 249.5,286.5 250.5,286.5C 250.183,282.298 250.517,278.298 251.5,274.5C 251.5,278.833 251.5,283.167 251.5,287.5C 249.833,287.5 248.167,287.5 246.5,287.5C 246.178,281.642 246.511,275.975 247.5,270.5 Z"/></g>
<g><path style="opacity:1" fill="#a4a7ad" d="M 271.5,272.5 C 271.59,275.152 270.924,277.485 269.5,279.5C 269.41,276.848 270.076,274.515 271.5,272.5 Z"/></g>
<g><path style="opacity:1" fill="#a4a8ae" d="M 238.5,273.5 C 239.434,274.568 239.768,275.901 239.5,277.5C 237.833,277.5 236.167,277.5 234.5,277.5C 234.263,276.209 234.596,275.209 235.5,274.5C 235.821,276.048 236.821,276.715 238.5,276.5C 238.5,275.5 238.5,274.5 238.5,273.5 Z"/></g>
<g><path style="opacity:1" fill="#a4a7ad" d="M 303.5,273.5 C 304.434,274.568 304.768,275.901 304.5,277.5C 302.712,277.785 301.045,277.452 299.5,276.5C 299.624,275.893 299.957,275.56 300.5,275.5C 301.209,276.404 302.209,276.737 303.5,276.5C 303.5,275.5 303.5,274.5 303.5,273.5 Z"/></g>
<g><path style="opacity:1" fill="#bec1c5" d="M 288.5,274.5 C 288.336,277.187 288.503,279.854 289,282.5C 290.699,283.406 292.533,283.739 294.5,283.5C 294.843,285.483 294.176,286.817 292.5,287.5C 292.5,286.5 292.5,285.5 292.5,284.5C 290.856,284.714 289.356,284.38 288,283.5C 287.195,280.304 287.362,277.304 288.5,274.5 Z"/></g>
<g><path style="opacity:1" fill="#acafb4" d="M 192.5,279.5 C 190.393,280.468 188.059,280.802 185.5,280.5C 185.5,281.5 185.5,282.5 185.5,283.5C 184.566,282.432 184.232,281.099 184.5,279.5C 187.167,279.5 189.833,279.5 192.5,279.5 Z"/></g>
<g><path style="opacity:1" fill="#a5a8ae" d="M 242.5,279.5 C 239.841,279.917 237.508,280.917 235.5,282.5C 234.596,281.791 234.263,280.791 234.5,279.5C 237.167,279.5 239.833,279.5 242.5,279.5 Z"/></g>
<g><path style="opacity:1" fill="#94989f" d="M 307.5,272.5 C 308.473,274.948 308.806,277.615 308.5,280.5C 305.615,280.194 302.948,280.527 300.5,281.5C 299.957,281.44 299.624,281.107 299.5,280.5C 302.086,279.52 304.753,279.187 307.5,279.5C 307.5,277.167 307.5,274.833 307.5,272.5 Z"/></g>
<g><path style="opacity:1" fill="#b8babf" d="M 143.5,279.5 C 144.5,279.5 145.5,279.5 146.5,279.5C 146.5,281.167 146.5,282.833 146.5,284.5C 145.167,284.5 143.833,284.5 142.5,284.5C 142.366,282.708 142.699,281.042 143.5,279.5 Z"/></g>
<g><path style="opacity:1" fill="#b0b3b8" d="M 269.5,279.5 C 269.59,282.152 268.924,284.485 267.5,286.5C 267.41,283.848 268.076,281.515 269.5,279.5 Z"/></g>
<g><path style="opacity:1" fill="#a3a7ad" d="M 185.5,283.5 C 187.833,283.5 190.167,283.5 192.5,283.5C 192.737,284.791 192.404,285.791 191.5,286.5C 189.844,284.94 187.844,283.94 185.5,283.5 Z"/></g>
<g><path style="opacity:1" fill="#a2a5ab" d="M 301.5,283.5 C 303.833,283.5 306.167,283.5 308.5,283.5C 308.737,284.791 308.404,285.791 307.5,286.5C 305.844,284.94 303.844,283.94 301.5,283.5 Z"/></g>
</svg>
